<mxfile host="app.diagrams.net" agent="Mozilla/5.0 (Windows NT 10.0; Win64; x64) AppleWebKit/537.36 (KHTML, like Gecko) Chrome/131.0.0.0 Safari/537.36" version="25.0.3">
  <diagram name="Page-1" id="Cx4qnVkXJlUMlydiqIRZ">
    <mxGraphModel dx="658" dy="914" grid="1" gridSize="10" guides="1" tooltips="1" connect="1" arrows="1" fold="1" page="1" pageScale="1" pageWidth="827" pageHeight="1169" math="0" shadow="0">
      <root>
        <mxCell id="0" />
        <mxCell id="1" parent="0" />
        <mxCell id="ZmX3UmChQakE0DPMqWdz-22" value="" style="rounded=1;whiteSpace=wrap;html=1;" vertex="1" parent="1">
          <mxGeometry x="542" y="341.5" width="112" height="60" as="geometry" />
        </mxCell>
        <mxCell id="ZmX3UmChQakE0DPMqWdz-21" value="" style="rounded=1;whiteSpace=wrap;html=1;" vertex="1" parent="1">
          <mxGeometry x="335" y="341.5" width="112" height="60" as="geometry" />
        </mxCell>
        <mxCell id="ZmX3UmChQakE0DPMqWdz-20" value="" style="rounded=1;whiteSpace=wrap;html=1;" vertex="1" parent="1">
          <mxGeometry x="134" y="341.5" width="112" height="60" as="geometry" />
        </mxCell>
        <mxCell id="ZmX3UmChQakE0DPMqWdz-1" value="" style="image;sketch=0;aspect=fixed;html=1;points=[];align=center;fontSize=12;image=img/lib/mscae/VM_Linux.svg;" vertex="1" parent="1">
          <mxGeometry x="165" y="262" width="50" height="46" as="geometry" />
        </mxCell>
        <mxCell id="ZmX3UmChQakE0DPMqWdz-2" value="" style="image;sketch=0;aspect=fixed;html=1;points=[];align=center;fontSize=12;image=img/lib/mscae/VM_Linux.svg;" vertex="1" parent="1">
          <mxGeometry x="364" y="262" width="50" height="46" as="geometry" />
        </mxCell>
        <mxCell id="ZmX3UmChQakE0DPMqWdz-3" value="" style="image;sketch=0;aspect=fixed;html=1;points=[];align=center;fontSize=12;image=img/lib/mscae/VM_Linux.svg;" vertex="1" parent="1">
          <mxGeometry x="571" y="262" width="50" height="46" as="geometry" />
        </mxCell>
        <mxCell id="ZmX3UmChQakE0DPMqWdz-4" value="" style="image;aspect=fixed;perimeter=ellipsePerimeter;html=1;align=center;shadow=0;dashed=0;spacingTop=3;image=img/lib/active_directory/active_directory.svg;" vertex="1" parent="1">
          <mxGeometry x="357.5" y="20" width="50" height="42.5" as="geometry" />
        </mxCell>
        <mxCell id="ZmX3UmChQakE0DPMqWdz-5" value="gl-swarm-01" style="text;html=1;align=center;verticalAlign=middle;whiteSpace=wrap;rounded=0;fontStyle=1" vertex="1" parent="1">
          <mxGeometry x="153" y="315" width="80" height="30" as="geometry" />
        </mxCell>
        <mxCell id="ZmX3UmChQakE0DPMqWdz-6" value="&lt;b&gt;gl-swarm-02&lt;/b&gt;" style="text;html=1;align=center;verticalAlign=middle;whiteSpace=wrap;rounded=0;" vertex="1" parent="1">
          <mxGeometry x="350" y="315" width="83" height="30" as="geometry" />
        </mxCell>
        <mxCell id="ZmX3UmChQakE0DPMqWdz-7" value="gl-swarm-03" style="text;html=1;align=center;verticalAlign=middle;whiteSpace=wrap;rounded=0;fontStyle=1" vertex="1" parent="1">
          <mxGeometry x="558" y="316" width="80" height="30" as="geometry" />
        </mxCell>
        <mxCell id="ZmX3UmChQakE0DPMqWdz-8" value="VM01" style="text;html=1;align=center;verticalAlign=middle;whiteSpace=wrap;rounded=0;" vertex="1" parent="1">
          <mxGeometry x="160" y="302" width="60" height="30" as="geometry" />
        </mxCell>
        <mxCell id="ZmX3UmChQakE0DPMqWdz-9" value="VM02" style="text;html=1;align=center;verticalAlign=middle;whiteSpace=wrap;rounded=0;" vertex="1" parent="1">
          <mxGeometry x="359" y="302" width="60" height="30" as="geometry" />
        </mxCell>
        <mxCell id="ZmX3UmChQakE0DPMqWdz-10" value="VM03" style="text;html=1;align=center;verticalAlign=middle;whiteSpace=wrap;rounded=0;" vertex="1" parent="1">
          <mxGeometry x="566" y="302" width="60" height="30" as="geometry" />
        </mxCell>
        <mxCell id="ZmX3UmChQakE0DPMqWdz-11" value="192.168.30.10" style="text;html=1;align=center;verticalAlign=middle;whiteSpace=wrap;rounded=0;" vertex="1" parent="1">
          <mxGeometry x="150.5" y="240" width="85" height="30" as="geometry" />
        </mxCell>
        <mxCell id="ZmX3UmChQakE0DPMqWdz-12" value="192.168.30.11" style="text;html=1;align=center;verticalAlign=middle;whiteSpace=wrap;rounded=0;" vertex="1" parent="1">
          <mxGeometry x="350" y="234" width="85" height="30" as="geometry" />
        </mxCell>
        <mxCell id="ZmX3UmChQakE0DPMqWdz-13" value="192.168.30.12" style="text;html=1;align=center;verticalAlign=middle;whiteSpace=wrap;rounded=0;" vertex="1" parent="1">
          <mxGeometry x="553.5" y="234" width="85" height="30" as="geometry" />
        </mxCell>
        <mxCell id="ZmX3UmChQakE0DPMqWdz-14" value="" style="image;html=1;image=img/lib/clip_art/general/Full_Folder_128x128.png" vertex="1" parent="1">
          <mxGeometry x="199" y="354" width="40" height="40" as="geometry" />
        </mxCell>
        <mxCell id="ZmX3UmChQakE0DPMqWdz-15" value="" style="image;aspect=fixed;html=1;points=[];align=center;fontSize=12;image=img/lib/azure2/general/Files.svg;" vertex="1" parent="1">
          <mxGeometry x="147" y="354" width="32" height="35" as="geometry" />
        </mxCell>
        <mxCell id="ZmX3UmChQakE0DPMqWdz-16" value="" style="image;html=1;image=img/lib/clip_art/general/Full_Folder_128x128.png" vertex="1" parent="1">
          <mxGeometry x="396.5" y="354" width="40" height="40" as="geometry" />
        </mxCell>
        <mxCell id="ZmX3UmChQakE0DPMqWdz-17" value="" style="image;aspect=fixed;html=1;points=[];align=center;fontSize=12;image=img/lib/azure2/general/Files.svg;" vertex="1" parent="1">
          <mxGeometry x="344.5" y="354" width="32" height="35" as="geometry" />
        </mxCell>
        <mxCell id="ZmX3UmChQakE0DPMqWdz-18" value="" style="image;html=1;image=img/lib/clip_art/general/Full_Folder_128x128.png" vertex="1" parent="1">
          <mxGeometry x="607.5" y="354" width="40" height="40" as="geometry" />
        </mxCell>
        <mxCell id="ZmX3UmChQakE0DPMqWdz-19" value="" style="image;aspect=fixed;html=1;points=[];align=center;fontSize=12;image=img/lib/azure2/general/Files.svg;" vertex="1" parent="1">
          <mxGeometry x="555.5" y="354" width="32" height="35" as="geometry" />
        </mxCell>
        <mxCell id="ZmX3UmChQakE0DPMqWdz-23" value="" style="endArrow=classic;startArrow=classic;html=1;rounded=0;" edge="1" parent="1">
          <mxGeometry width="50" height="50" relative="1" as="geometry">
            <mxPoint x="178" y="377" as="sourcePoint" />
            <mxPoint x="207" y="377" as="targetPoint" />
          </mxGeometry>
        </mxCell>
        <mxCell id="ZmX3UmChQakE0DPMqWdz-24" value="" style="endArrow=classic;startArrow=classic;html=1;rounded=0;" edge="1" parent="1">
          <mxGeometry width="50" height="50" relative="1" as="geometry">
            <mxPoint x="375" y="378" as="sourcePoint" />
            <mxPoint x="404" y="378" as="targetPoint" />
          </mxGeometry>
        </mxCell>
        <mxCell id="ZmX3UmChQakE0DPMqWdz-25" value="" style="endArrow=classic;startArrow=classic;html=1;rounded=0;" edge="1" parent="1">
          <mxGeometry width="50" height="50" relative="1" as="geometry">
            <mxPoint x="587.5" y="381" as="sourcePoint" />
            <mxPoint x="616.5" y="381" as="targetPoint" />
          </mxGeometry>
        </mxCell>
        <mxCell id="ZmX3UmChQakE0DPMqWdz-26" value="&lt;font style=&quot;font-size: 9px;&quot;&gt;/home/admin/mnt-glusterfs&lt;/font&gt;" style="text;html=1;align=center;verticalAlign=middle;whiteSpace=wrap;rounded=0;" vertex="1" parent="1">
          <mxGeometry x="135" y="394" width="116" height="30" as="geometry" />
        </mxCell>
        <mxCell id="ZmX3UmChQakE0DPMqWdz-27" value="&lt;font style=&quot;font-size: 9px;&quot;&gt;/home/admin/mnt-glusterfs&lt;/font&gt;" style="text;html=1;align=center;verticalAlign=middle;whiteSpace=wrap;rounded=0;" vertex="1" parent="1">
          <mxGeometry x="333" y="394" width="116" height="30" as="geometry" />
        </mxCell>
        <mxCell id="ZmX3UmChQakE0DPMqWdz-28" value="&lt;font style=&quot;font-size: 9px;&quot;&gt;/home/admin/mnt-glusterfs&lt;/font&gt;" style="text;html=1;align=center;verticalAlign=middle;whiteSpace=wrap;rounded=0;" vertex="1" parent="1">
          <mxGeometry x="543" y="393" width="116" height="30" as="geometry" />
        </mxCell>
        <mxCell id="ZmX3UmChQakE0DPMqWdz-29" value="" style="sketch=0;pointerEvents=1;shadow=0;dashed=0;html=1;strokeColor=none;fillColor=#434445;aspect=fixed;labelPosition=center;verticalLabelPosition=bottom;verticalAlign=top;align=center;outlineConnect=0;shape=mxgraph.vvd.storage;" vertex="1" parent="1">
          <mxGeometry x="370" y="464" width="37.5" height="50" as="geometry" />
        </mxCell>
        <mxCell id="ZmX3UmChQakE0DPMqWdz-30" value="" style="endArrow=classic;startArrow=classic;html=1;rounded=0;entryX=0.5;entryY=1;entryDx=0;entryDy=0;" edge="1" parent="1" target="ZmX3UmChQakE0DPMqWdz-26">
          <mxGeometry width="50" height="50" relative="1" as="geometry">
            <mxPoint x="370" y="474" as="sourcePoint" />
            <mxPoint x="420" y="424" as="targetPoint" />
            <Array as="points">
              <mxPoint x="193" y="474" />
            </Array>
          </mxGeometry>
        </mxCell>
        <mxCell id="ZmX3UmChQakE0DPMqWdz-31" value="" style="endArrow=classic;startArrow=classic;html=1;rounded=0;entryX=0.463;entryY=1.054;entryDx=0;entryDy=0;entryPerimeter=0;" edge="1" parent="1" source="ZmX3UmChQakE0DPMqWdz-29" target="ZmX3UmChQakE0DPMqWdz-27">
          <mxGeometry width="50" height="50" relative="1" as="geometry">
            <mxPoint x="370" y="474" as="sourcePoint" />
            <mxPoint x="420" y="424" as="targetPoint" />
          </mxGeometry>
        </mxCell>
        <mxCell id="ZmX3UmChQakE0DPMqWdz-32" value="" style="endArrow=classic;startArrow=classic;html=1;rounded=0;entryX=0.5;entryY=1;entryDx=0;entryDy=0;" edge="1" parent="1" target="ZmX3UmChQakE0DPMqWdz-28">
          <mxGeometry width="50" height="50" relative="1" as="geometry">
            <mxPoint x="410" y="474" as="sourcePoint" />
            <mxPoint x="420" y="424" as="targetPoint" />
            <Array as="points">
              <mxPoint x="601" y="474" />
            </Array>
          </mxGeometry>
        </mxCell>
        <mxCell id="ZmX3UmChQakE0DPMqWdz-33" value="GlusterFS volume" style="text;html=1;align=center;verticalAlign=middle;whiteSpace=wrap;rounded=0;" vertex="1" parent="1">
          <mxGeometry x="361" y="520" width="60" height="30" as="geometry" />
        </mxCell>
        <mxCell id="ZmX3UmChQakE0DPMqWdz-34" value="192.168.30.100" style="ellipse;shape=cloud;whiteSpace=wrap;html=1;" vertex="1" parent="1">
          <mxGeometry x="316" y="120" width="133" height="70" as="geometry" />
        </mxCell>
        <mxCell id="ZmX3UmChQakE0DPMqWdz-35" value="" style="endArrow=classic;html=1;rounded=0;exitX=0.55;exitY=0.95;exitDx=0;exitDy=0;exitPerimeter=0;" edge="1" parent="1" source="ZmX3UmChQakE0DPMqWdz-34">
          <mxGeometry width="50" height="50" relative="1" as="geometry">
            <mxPoint x="430" y="380" as="sourcePoint" />
            <mxPoint x="389" y="240" as="targetPoint" />
          </mxGeometry>
        </mxCell>
        <mxCell id="ZmX3UmChQakE0DPMqWdz-36" value="" style="endArrow=classic;html=1;rounded=0;exitX=0.55;exitY=0.95;exitDx=0;exitDy=0;exitPerimeter=0;" edge="1" parent="1" source="ZmX3UmChQakE0DPMqWdz-34">
          <mxGeometry width="50" height="50" relative="1" as="geometry">
            <mxPoint x="430" y="380" as="sourcePoint" />
            <mxPoint x="190" y="240" as="targetPoint" />
            <Array as="points">
              <mxPoint x="389" y="210" />
              <mxPoint x="190" y="210" />
            </Array>
          </mxGeometry>
        </mxCell>
        <mxCell id="ZmX3UmChQakE0DPMqWdz-38" value="" style="endArrow=classic;html=1;rounded=0;exitX=0.55;exitY=0.95;exitDx=0;exitDy=0;exitPerimeter=0;" edge="1" parent="1" source="ZmX3UmChQakE0DPMqWdz-34">
          <mxGeometry width="50" height="50" relative="1" as="geometry">
            <mxPoint x="430" y="380" as="sourcePoint" />
            <mxPoint x="596" y="240" as="targetPoint" />
            <Array as="points">
              <mxPoint x="389" y="210" />
              <mxPoint x="596" y="210" />
            </Array>
          </mxGeometry>
        </mxCell>
        <mxCell id="ZmX3UmChQakE0DPMqWdz-39" value="VIP" style="text;html=1;align=center;verticalAlign=middle;whiteSpace=wrap;rounded=0;" vertex="1" parent="1">
          <mxGeometry x="396.5" y="180" width="60" height="30" as="geometry" />
        </mxCell>
        <mxCell id="ZmX3UmChQakE0DPMqWdz-40" value="&lt;span style=&quot;background-color: initial;&quot;&gt;graylog.sopaline.lan&lt;/span&gt;" style="text;html=1;align=center;verticalAlign=middle;whiteSpace=wrap;rounded=0;" vertex="1" parent="1">
          <mxGeometry x="306.5" y="62.5" width="150" height="27.5" as="geometry" />
        </mxCell>
        <mxCell id="ZmX3UmChQakE0DPMqWdz-42" value="" style="endArrow=classic;html=1;rounded=1;exitX=1;exitY=0.5;exitDx=0;exitDy=0;" edge="1" parent="1" source="ZmX3UmChQakE0DPMqWdz-40">
          <mxGeometry width="50" height="50" relative="1" as="geometry">
            <mxPoint x="503.5" y="130" as="sourcePoint" />
            <mxPoint x="450" y="150" as="targetPoint" />
            <Array as="points">
              <mxPoint x="470" y="110" />
            </Array>
          </mxGeometry>
        </mxCell>
        <mxCell id="ZmX3UmChQakE0DPMqWdz-43" value="" style="image;sketch=0;aspect=fixed;html=1;points=[];align=center;fontSize=12;image=img/lib/mscae/Docker.svg;fontStyle=1" vertex="1" parent="1">
          <mxGeometry x="129" y="610" width="50" height="41" as="geometry" />
        </mxCell>
      </root>
    </mxGraphModel>
  </diagram>
</mxfile>
